<svg width="420" height="240" viewBox="0 0 420 240" fill="none" xmlns="http://www.w3.org/2000/svg">
<path fill-rule="evenodd" clip-rule="evenodd" d="M191.245 205.103C190.596 203.945 175.888 151.584 175.888 151.584L144.265 151.591C142.841 151.486 141.706 152.73 142.098 153.976C145.498 164.814 154.063 201.367 154.586 203.29C155.109 205.213 157.631 205.229 157.981 205.21C162.705 204.953 191.245 205.103 191.245 205.103Z" fill="#3D4043"/>
<path fill-rule="evenodd" clip-rule="evenodd" d="M191.245 205.103C190.596 203.945 175.888 151.584 175.888 151.584L144.265 151.591C142.841 151.486 141.706 152.73 142.098 153.976C145.498 164.814 154.063 201.367 154.586 203.29C155.109 205.213 157.631 205.229 157.981 205.21C162.705 204.953 191.245 205.103 191.245 205.103Z" stroke="#3D4043"/>
<path fill-rule="evenodd" clip-rule="evenodd" d="M196.264 133.31L195.334 130.485C195.036 129.584 194.194 128.974 193.244 128.978L167.02 129.065C166.118 129.067 165.306 129.624 164.983 130.468L163.757 133.631C163.169 135.15 161.709 136.153 160.077 136.16L157.754 136.169L157.984 205.21L256.419 204.891L254.93 135.852L200.037 136.032C198.322 136.035 196.8 134.941 196.264 133.31Z" fill="#D5D7DB"/>
<path d="M191.246 205.103L256.418 204.891L254.93 135.852" stroke="#3D4043"/>
<path d="M184.828 205.125L188.006 205.116" stroke="#3D4043"/>
<path d="M157.984 205.213L181.142 205.136" stroke="#3D4043"/>
<path fill-rule="evenodd" clip-rule="evenodd" d="M255.97 171.865C255.78 183.808 251.465 199.935 231.332 204.972C235.153 205.011 252.238 205.004 256.054 204.89" fill="#3D4043"/>
<path d="M181.137 205.121H184.82" stroke="#D5D7DB"/>
<path d="M187.562 205.121H191.246" stroke="#D5D7DB"/>
<path fill-rule="evenodd" clip-rule="evenodd" d="M340.291 130.959C345.133 126.082 348.121 119.669 348.742 112.826C346.457 112.618 344.17 112.411 341.883 112.203C342.036 117.047 340.63 122.009 337.66 126.279C338.619 127.773 339.498 129.336 340.291 130.959Z" fill="#FCC934"/>
<path fill-rule="evenodd" clip-rule="evenodd" d="M238.989 128.034C238.032 126.342 236.915 124.825 235.684 123.501C239.24 120.079 241.993 114.912 242.694 108.617C244.574 109.487 246.425 110.581 248.202 111.897C246.774 118.769 243.286 124.341 238.989 128.034Z" fill="#669DF6"/>
<path fill-rule="evenodd" clip-rule="evenodd" d="M325.614 165.379C325.614 166.327 324.845 167.096 323.896 167.096C322.948 167.096 322.18 166.327 322.18 165.379C322.18 164.431 322.948 163.661 323.896 163.661C324.845 163.661 325.614 164.431 325.614 165.379Z" stroke="#3D4043"/>
<path d="M151.87 117.462C151.034 111.429 142.457 109.64 137.429 110.294C132.745 110.901 126.948 114.142 125.203 118.683" stroke="#3D4043"/>
<path d="M125.09 118.993C124.493 120.742 124.506 122.676 125.402 124.722C126.589 127.421 129.647 129.316 132.559 128.781C134.131 128.491 135.71 127.256 135.624 125.672C135.544 124.161 133.999 123.112 132.499 122.828C129.355 122.227 126.131 123.969 124.082 126.418C121.004 130.095 120.095 135.13 120.195 139.909C120.227 141.631 120.381 143.347 120.573 145.057" stroke="#3D4043"/>
<path d="M120.589 145.215C120.921 148.199 121.372 151.181 121.518 154.178C121.896 161.834 119.309 171.141 111.707 174.612" stroke="#3D4043"/>
<path d="M273.516 166.663C275.095 163.666 277.807 160.948 280.72 159.218C283.246 157.713 286.344 156.961 289.19 157.72C292.023 158.473 294.305 160.611 295.923 163.04C299.977 169.145 300.248 177.534 296.593 183.876C295.24 186.233 293.223 188.404 290.583 189.058C287.937 189.71 284.686 188.298 284.102 185.645C283.644 183.572 284.984 181.361 286.901 180.438C288.819 179.514 291.154 179.725 293.091 180.609C298.072 182.887 301.137 188.588 303.339 193.295C305.767 198.476 306.875 204.139 308.334 209.636C308.945 211.94 309.693 214.336 311.432 215.966C312.984 217.418 315.187 218.072 317.316 217.986" stroke="#3D4043"/>
<path fill-rule="evenodd" clip-rule="evenodd" d="M87.6942 70.2332L78.6992 75.0576L80.7752 79.2954L90.3076 73.8964L87.6942 70.2332Z" fill="#FCC934"/>
<path fill-rule="evenodd" clip-rule="evenodd" d="M103.357 176.65L99.1172 185.934L103.334 188.05L107.655 177.984L103.357 176.65Z" fill="#5BB974"/>
<path fill-rule="evenodd" clip-rule="evenodd" d="M212.917 121.581C212.288 121.426 211.625 121.271 210.941 121.12C212.072 119.34 210.045 117.564 211.778 115.785C212.408 115.94 213.07 116.095 213.754 116.246C212.623 118.026 214.646 119.802 212.917 121.581Z" stroke="#3D4043"/>
<path fill-rule="evenodd" clip-rule="evenodd" d="M170.851 94.1198C172.476 93.829 174.048 93.5389 175.581 93.2551C176.31 89.9218 171.136 86.5955 172.993 83.2622C171.368 83.553 169.796 83.8432 168.264 84.1269C167.527 87.4602 172.701 90.7865 170.851 94.1198Z" fill="white"/>
<path fill-rule="evenodd" clip-rule="evenodd" d="M204.253 198.67C205.878 198.379 207.45 198.089 208.983 197.805C209.712 194.472 204.538 191.146 206.396 187.812C204.77 188.103 203.198 188.393 201.666 188.677C200.929 192.01 206.104 195.337 204.253 198.67Z" fill="white"/>
<path fill-rule="evenodd" clip-rule="evenodd" d="M204.253 198.67C205.878 198.379 207.45 198.089 208.983 197.805C209.712 194.472 204.538 191.146 206.396 187.812C204.77 188.103 203.198 188.393 201.666 188.677C200.929 192.01 206.104 195.337 204.253 198.67Z" stroke="#3D4043"/>
<path fill-rule="evenodd" clip-rule="evenodd" d="M139.45 211.791C140.431 211.791 141.227 210.999 141.227 210.022C141.227 209.046 140.431 208.253 139.45 208.253C138.468 208.253 137.672 209.046 137.672 210.022C137.672 210.999 138.468 211.791 139.45 211.791Z" fill="#3D4043"/>
<path fill-rule="evenodd" clip-rule="evenodd" d="M128.664 60.6233C129.72 60.6233 130.575 59.7721 130.575 58.7229C130.575 57.673 129.72 56.8218 128.664 56.8218C127.609 56.8218 126.754 57.673 126.754 58.7229C126.754 59.7721 127.609 60.6233 128.664 60.6233Z" fill="#5BB974"/>
<path fill-rule="evenodd" clip-rule="evenodd" d="M269.726 205.78C270.781 205.78 271.637 204.929 271.637 203.88C271.637 202.83 270.781 201.979 269.726 201.979C268.672 201.979 267.816 202.83 267.816 203.88C267.816 204.929 268.672 205.78 269.726 205.78Z" fill="#3D4043"/>
<path fill-rule="evenodd" clip-rule="evenodd" d="M265.083 107.342C266.137 107.342 266.992 106.492 266.992 105.442C266.992 104.392 266.137 103.541 265.083 103.541C264.027 103.541 263.172 104.392 263.172 105.442C263.172 106.492 264.027 107.342 265.083 107.342Z" fill="#458847"/>
<path fill-rule="evenodd" clip-rule="evenodd" d="M177.552 34.5531C173.711 28.5936 167.894 24.1579 161.114 22C160.392 24.2508 159.668 26.5081 158.945 28.7582C163.874 29.6889 168.577 32.2101 172.225 36.1506C173.957 35.5235 175.734 34.9887 177.552 34.5531Z" fill="#5BB974"/>
<path fill-rule="evenodd" clip-rule="evenodd" d="M69.9414 124.756C71.7791 123.403 73.6962 122.274 75.646 121.377C76.3691 127.865 79.2214 133.191 82.9032 136.716C81.6298 138.082 80.4756 139.646 79.4802 141.389C75.0291 137.58 71.414 131.839 69.9414 124.756Z" fill="#669DF6"/>
<path fill-rule="evenodd" clip-rule="evenodd" d="M166.759 90.0873C164.535 90.2897 162.168 90.1693 159.762 89.6844C158.41 84.8791 158.623 80.2071 159.927 76.3428C161.34 77.2812 162.812 77.9781 164.27 78.4463C163.819 82.0115 164.517 86.1519 166.759 90.0873Z" fill="#5BB974"/>
<path fill-rule="evenodd" clip-rule="evenodd" d="M227.238 30.1551C227.971 29.7036 228.726 29.2289 229.501 28.728C230.125 31.4356 233.667 31.1793 233.733 34.4518C233.001 34.9034 232.245 35.378 231.47 35.8789C230.847 33.1714 227.307 33.4244 227.238 30.1551Z" fill="#669DF6"/>
<path fill-rule="evenodd" clip-rule="evenodd" d="M127.058 200.902C127.943 200.902 128.66 200.185 128.66 199.3C128.66 198.416 127.943 197.699 127.058 197.699C126.174 197.699 125.457 198.416 125.457 199.3C125.457 200.185 126.174 200.902 127.058 200.902Z" fill="#3D4043"/>
<path fill-rule="evenodd" clip-rule="evenodd" d="M298.652 51.1719C300.556 52.3402 302.38 53.8512 304.019 55.6799C302.228 60.3392 299.262 63.9562 295.906 66.273C295.336 64.6756 294.573 63.2369 293.684 61.9892C296.178 59.4021 298.095 55.6665 298.652 51.1719Z" fill="#5BB974"/>
<path d="M116.629 216.081H304.012" stroke="#3D4043"/>
</svg>
